<svg width="176" height="48" viewBox="0 0 176 48" fill="none" xmlns="http://www.w3.org/2000/svg">
<g id="Layer_1" clip-path="url(#clip0_1710_37568)">
<g id="Group">
<path id="Vector" d="M9.4375 9.59961L18.8727 19.1996L28.3079 9.59961H9.4375Z" fill="#78A3BF"/>
<path id="Vector_2" d="M0 19.2L9.43518 28.8L18.8704 19.2H0Z" fill="#3F82A4"/>
<path id="Vector_3" d="M37.7422 19.2002L47.1774 28.8002L56.6126 19.2002H37.7422Z" fill="#662483"/>
<path id="Vector_4" d="M47.1797 28.8L56.6149 38.4L66.0501 28.8H47.1797Z" fill="#4E699C"/>
<path id="Vector_5" d="M28.3047 9.59961L37.7399 19.1996L47.175 9.59961H28.3047Z" fill="#6C7EAC"/>
<path id="Vector_6" d="M18.875 0L28.3102 9.6L37.7454 0H18.875Z" fill="#643A86"/>
<path id="Vector_7" d="M18.875 38.4004L28.3102 48.0004L37.7454 38.4004H18.875Z" fill="#98C6BD"/>
<path id="Vector_8" d="M37.7422 38.4004L47.1774 48.0004L56.6126 38.4004H37.7422Z" fill="#662483"/>
<path id="Vector_9" d="M56.6094 38.4004L66.0446 48.0004L75.4797 38.4004H56.6094Z" fill="#662483"/>
<path id="Vector_10" d="M18.875 19.2002L28.3102 28.8002L37.7454 19.2002H18.875Z" fill="#4E699C"/>
<path id="Vector_11" d="M56.6126 38.3998L47.1774 28.7998L37.7422 38.3998H56.6126Z" fill="#662483"/>
<path id="Vector_12" d="M66.0469 9.59961L75.4821 19.1996L84.9172 9.59961H66.0469Z" fill="#662483"/>
<path id="Vector_13" d="M75.4797 19.1996L66.0446 9.59961L56.6094 19.1996H75.4797Z" fill="#646CA3"/>
<path id="Vector_14" d="M113.222 19.1996L103.787 9.59961L94.3516 19.1996H113.222Z" fill="#662483"/>
<path id="Vector_15" d="M66.0501 9.6L56.6149 0L47.1797 9.6H66.0501Z" fill="#74BDB8"/>
<path id="Vector_16" d="M66.0501 28.8L56.6149 19.2L47.1797 28.8H66.0501Z" fill="#662483"/>
<path id="Vector_17" d="M47.175 28.8002L37.7399 19.2002L28.3047 28.8002H47.175Z" fill="#8A6BA7"/>
<path id="Vector_18" d="M56.6094 19.2002L66.0446 28.8002L75.4797 19.2002H56.6094Z" fill="#662483"/>
<path id="Vector_19" d="M84.9172 28.8002L75.4821 19.2002L66.0469 28.8002H84.9172Z" fill="#662483"/>
<path id="Vector_20" d="M75.4844 19.2002L84.9196 28.8002L94.3547 19.2002H75.4844Z" fill="#5F5991"/>
<path id="Vector_21" d="M103.784 28.8002L94.3492 19.2002L84.9141 28.8002H103.784Z" fill="#662483"/>
<path id="Vector_22" d="M94.3516 19.2002L103.786 28.8002L113.221 19.2002H94.3516Z" fill="#662483"/>
<path id="Vector_23" d="M84.9172 9.6L75.4821 0L66.0469 9.6H84.9172Z" fill="#662483"/>
<path id="Vector_24" d="M75.4844 0L84.9196 9.6L94.3547 0H75.4844Z" fill="#662483"/>
<path id="Vector_25" d="M103.784 9.6L94.3492 0L84.9141 9.6H103.784Z" fill="#662483"/>
<path id="Vector_26" d="M94.3516 0L103.786 9.6L113.221 0H94.3516Z" fill="#662483"/>
<path id="Vector_27" d="M18.8704 38.4L9.43518 28.8L0 38.4H18.8704Z" fill="#74BDB8"/>
<path id="Vector_28" d="M84.9161 48.0004L75.4821 38.4004L66.0469 48.0004H84.9161Z" fill="#662483"/>
<path id="Vector_29" d="M66.0422 48.0004L56.6071 38.4004L47.1719 48.0004H66.0422Z" fill="#662483"/>
<path id="Vector_30" d="M103.789 9.59961L113.224 19.1996L122.659 9.59961H103.789Z" fill="#662483"/>
<path id="Vector_31" d="M122.659 9.6L113.224 0L103.789 9.6H122.659Z" fill="#7892B6"/>
<path id="Vector_32" d="M37.7454 38.3998L28.3102 28.7998L18.875 38.3998H37.7454Z" fill="#3FAEA8"/>
<path id="Vector_33" d="M37.7454 19.1996L28.3102 9.59961L18.875 19.1996H37.7454Z" fill="#98C6BD"/>
</g>
<g id="Group_2">
<g id="Group_3">
<path id="Vector_34" d="M103.07 43.9823H105.613V44.6643H103.883V45.7239H105.462V46.3781H103.883V47.9332H103.07V43.9834V43.9823Z" fill="white"/>
<path id="Vector_35" d="M110.586 43.9823H113.158V44.6643H111.398V45.6117H113.057V46.2604H111.398V47.2512H113.158V47.9332H110.586V43.9834V43.9823Z" fill="white"/>
<path id="Vector_36" d="M118.242 43.9823H119.725C120.113 43.9823 120.446 44.0578 120.721 44.21C120.996 44.3622 121.208 44.5832 121.354 44.8742C121.502 45.1652 121.575 45.5195 121.575 45.9372V45.9427C121.575 46.3604 121.502 46.718 121.356 47.0157C121.209 47.3134 120.999 47.54 120.722 47.6966C120.446 47.8532 120.113 47.932 119.725 47.932H118.242V43.9823ZM119.628 47.2478C119.87 47.2478 120.074 47.199 120.24 47.1001C120.406 47.0013 120.531 46.8557 120.618 46.6625C120.704 46.4692 120.746 46.2304 120.746 45.945V45.9394C120.746 45.6662 120.703 45.434 120.614 45.2441C120.526 45.0541 120.399 44.9109 120.232 44.8131C120.065 44.7154 119.863 44.6665 119.626 44.6665H119.053V47.2478H119.626H119.628Z" fill="white"/>
<path id="Vector_37" d="M126.594 43.9823H129.166V44.6643H127.406V45.6117H129.065V46.2604H127.406V47.2512H129.166V47.9332H126.594V43.9834V43.9823Z" fill="white"/>
<path id="Vector_38" d="M134.25 43.9823H135.854C136.144 43.9823 136.393 44.0323 136.6 44.1345C136.808 44.2355 136.966 44.3799 137.076 44.5688C137.187 44.7565 137.242 44.9831 137.242 45.2474V45.253C137.242 45.514 137.179 45.745 137.052 45.9472C136.926 46.1493 136.755 46.2926 136.54 46.3781L137.358 47.9332H136.435L135.714 46.5048H135.063V47.9332H134.251V43.9834L134.25 43.9823ZM135.764 45.8739C135.965 45.8739 136.122 45.8194 136.238 45.7095C136.353 45.6006 136.41 45.4485 136.41 45.2552V45.2496C136.41 45.0597 136.35 44.9098 136.231 44.7976C136.112 44.6865 135.953 44.631 135.754 44.631H135.063V45.8739H135.765H135.764Z" fill="white"/>
<path id="Vector_39" d="M143.372 43.9823H144.327L145.677 47.932H144.821L143.859 44.7487H143.842L142.876 47.932H142.023L143.371 43.9823H143.372ZM142.837 46.3548H144.849V46.9735H142.837V46.3548Z" fill="white"/>
<path id="Vector_40" d="M150.968 44.6643H149.844V43.9823H152.905V44.6643H151.78V47.932H150.968V44.6643Z" fill="white"/>
<path id="Vector_41" d="M157.852 43.9823H158.664V47.932H157.852V43.9823Z" fill="white"/>
<path id="Vector_42" d="M164.557 47.7527C164.277 47.5872 164.06 47.3529 163.908 47.0463C163.755 46.7409 163.68 46.3777 163.68 45.9578V45.9523C163.68 45.5324 163.756 45.1703 163.91 44.866C164.064 44.5616 164.28 44.3262 164.561 44.1607C164.841 43.9952 165.173 43.913 165.555 43.913C165.937 43.913 166.27 43.9963 166.551 44.1618C166.831 44.3284 167.046 44.5627 167.199 44.8671C167.352 45.1703 167.428 45.5324 167.428 45.9523V45.9578C167.428 46.3777 167.352 46.7398 167.199 47.0441C167.046 47.3484 166.831 47.5839 166.553 47.7505C166.273 47.9171 165.942 47.9993 165.556 47.9993C165.171 47.9993 164.84 47.9171 164.56 47.7516L164.557 47.7527ZM166.11 47.1341C166.265 47.0241 166.385 46.8686 166.469 46.6676C166.553 46.4665 166.595 46.231 166.595 45.9589V45.9534C166.595 45.6801 166.553 45.4424 166.468 45.2414C166.383 45.0403 166.263 44.886 166.106 44.7771C165.95 44.6683 165.767 44.6138 165.555 44.6138C165.343 44.6138 165.159 44.6683 165.003 44.7771C164.847 44.886 164.724 45.0404 164.639 45.2392C164.554 45.4391 164.512 45.6768 164.512 45.9523V45.9578C164.512 46.231 164.554 46.4687 164.639 46.6698C164.724 46.8708 164.846 47.0252 165.002 47.1352C165.158 47.2451 165.342 47.2996 165.556 47.2996C165.77 47.2996 165.957 47.244 166.112 47.1341H166.11Z" fill="white"/>
<path id="Vector_43" d="M172.445 43.9823H173.156L175.265 47.0723L174.585 46.5492H174.927V43.9823H175.737V47.932H175.031L172.917 44.8253L173.598 45.3485H173.256V47.932H172.446V43.9823H172.445Z" fill="white"/>
</g>
<path id="Vector_44" d="M142.765 5.03382C142.931 5.59474 143.24 6.23896 143.69 6.9687C143.876 7.26638 144.086 7.57294 144.317 7.89061C144.55 8.20827 144.785 8.5215 145.024 8.8325C145.264 9.1435 145.493 9.44007 145.711 9.7233C145.931 10.0065 146.113 10.2631 146.258 10.493C146.549 10.9529 146.753 11.3705 146.865 11.7493C146.977 12.128 147.034 12.499 147.034 12.8633C147.034 13.4576 146.911 13.9163 146.665 14.2406C146.42 14.565 146.045 14.7271 145.541 14.7271C145.076 14.7271 144.714 14.5849 144.456 14.3017C144.197 14.0185 144.067 13.6875 144.067 13.3087V12.9233L142.375 12.4779V13.3287C142.375 13.7608 142.451 14.1662 142.604 14.5439C142.757 14.9226 142.973 15.2503 143.252 15.5268C143.53 15.8034 143.872 16.0233 144.277 16.1855C144.682 16.3477 145.143 16.4288 145.661 16.4288C146.736 16.4288 147.525 16.0878 148.03 15.4058C148.534 14.7238 148.786 13.7952 148.786 12.6201C148.786 12.0392 148.716 11.526 148.577 11.0806C148.437 10.6352 148.215 10.162 147.91 9.66221C147.724 9.36565 147.505 9.03799 147.253 8.67922C147 8.32157 146.738 7.95725 146.467 7.58516C146.195 7.21417 145.929 6.85874 145.67 6.52108C145.411 6.18342 145.195 5.88686 145.022 5.63028C144.757 5.25263 144.554 4.89054 144.415 4.54621C144.276 4.20189 144.206 3.83424 144.206 3.44215C144.206 2.97009 144.321 2.56801 144.554 2.23701C144.786 1.90602 145.148 1.74052 145.639 1.74052C146.064 1.74052 146.396 1.87603 146.635 2.14593C146.874 2.41584 146.993 2.78127 146.993 3.24V3.66541H148.685V3.09783C148.685 2.16593 148.419 1.41619 147.888 0.849717C147.357 0.282136 146.62 -0.00109863 145.677 -0.00109863C145.596 -0.00109863 145.52 0.00445499 145.443 0.0088979L142.533 2.96898C142.52 3.1156 142.513 3.26554 142.513 3.42216C142.513 3.93531 142.596 4.4729 142.761 5.03271L142.765 5.03382Z" fill="white"/>
<path id="Vector_45" d="M153.912 0H152.196L149.469 16.4287H151.241L151.631 13.8563H154.538L154.946 16.4287H156.717L153.912 0ZM151.87 12.2968L153.065 4.35515L154.299 12.2968H151.87Z" fill="white"/>
<path id="Vector_46" d="M164.318 13.2487V0H162.526V13.2287C162.526 13.6886 162.396 14.0362 162.138 14.2717C161.879 14.5083 161.537 14.626 161.112 14.626C160.714 14.626 160.385 14.5083 160.127 14.2717C159.868 14.0351 159.738 13.6875 159.738 13.2287V0H157.906V13.2487C157.906 13.7486 157.989 14.194 158.155 14.586C158.321 14.9781 158.546 15.3125 158.832 15.589C159.117 15.8656 159.452 16.0755 159.837 16.2166C160.222 16.3588 160.64 16.4287 161.092 16.4287C161.544 16.4287 161.964 16.3577 162.356 16.2166C162.748 16.0744 163.089 15.8656 163.381 15.589C163.672 15.3125 163.902 14.9781 164.068 14.586C164.233 14.1951 164.316 13.7486 164.316 13.2487H164.318Z" fill="white"/>
<path id="Vector_47" d="M172.441 12.7822V3.64651C172.441 2.40472 172.163 1.48615 171.605 0.891913C171.047 0.297674 170.29 0 169.335 0H166.109V16.4287H169.335C170.29 16.4287 171.048 16.1322 171.605 15.5379C172.163 14.9437 172.441 14.0251 172.441 12.7833V12.7822ZM170.629 12.9033C170.629 14.0518 170.151 14.6249 169.195 14.6249H167.941V1.80271H169.195C170.151 1.80271 170.629 2.37695 170.629 3.52433V12.9033Z" fill="white"/>
<path id="Vector_48" d="M176.004 0H174.172V16.4287H176.004V0Z" fill="white"/>
<path id="Vector_49" d="M128.656 36.9927V35.19H125.332V29.7208H127.681V27.9181H125.332V22.9343H128.656V21.1316H125.509L123.5 23.1753V36.9927H128.656Z" fill="white"/>
<path id="Vector_50" d="M135.739 30.5108C135.552 30.2143 135.334 29.8866 135.082 29.5279C134.83 29.1702 134.568 28.8059 134.296 28.4338C134.024 28.0628 133.759 27.7074 133.499 27.3697C133.24 27.0321 133.024 26.7355 132.851 26.4789C132.586 26.1013 132.384 25.7392 132.245 25.3948C132.105 25.0505 132.036 24.6829 132.036 24.2908C132.036 23.8187 132.152 23.4166 132.384 23.0856C132.617 22.7546 132.978 22.5892 133.469 22.5892C133.894 22.5892 134.226 22.7247 134.465 22.9946C134.704 23.2645 134.823 23.6299 134.823 24.0886V24.514H136.515V23.9465C136.515 23.0146 136.25 22.2648 135.718 21.6984C135.187 21.1308 134.451 20.8475 133.509 20.8475C132.567 20.8475 131.786 21.1552 131.209 21.7694C130.631 22.3837 130.343 23.2178 130.343 24.2708C130.343 24.7839 130.426 25.3215 130.592 25.8813C130.758 26.4423 131.067 27.0865 131.517 27.8162C131.703 28.1139 131.913 28.4205 132.145 28.7381C132.378 29.0558 132.612 29.369 132.851 29.68C133.091 29.991 133.32 30.2876 133.539 30.5708C133.758 30.8541 133.941 31.1106 134.086 31.3406C134.378 31.8004 134.581 32.218 134.693 32.5968C134.806 32.9755 134.862 33.3465 134.862 33.7108C134.862 34.3051 134.74 34.7638 134.494 35.0881C134.249 35.4125 133.873 35.5746 133.369 35.5746C132.904 35.5746 132.543 35.4325 132.284 35.1492C132.025 34.866 131.895 34.535 131.895 34.1562V33.7708L130.203 33.3254V34.1762C130.203 34.6083 130.28 35.0137 130.432 35.3914C130.585 35.7701 130.8 36.0978 131.08 36.3744C131.358 36.6509 131.7 36.8709 132.105 37.033C132.51 37.1952 132.97 37.2763 133.489 37.2763C134.564 37.2763 135.354 36.9353 135.858 36.2533C136.362 35.5713 136.614 34.6427 136.614 33.4676C136.614 32.8867 136.545 32.3735 136.405 31.9281C136.265 31.4827 136.043 31.0096 135.738 30.5097L135.739 30.5108Z" fill="white"/>
<path id="Vector_51" d="M141.818 21.1316H138.594V36.9939H140.426V30.7338H141.82C142.775 30.7338 143.532 30.4372 144.089 29.843C144.647 29.2488 144.925 28.3302 144.925 27.0884V24.7792C144.925 23.5374 144.647 22.6189 144.089 22.0246C143.531 21.4304 142.775 21.1327 141.82 21.1327L141.818 21.1316ZM143.113 27.2095C143.113 28.358 142.635 28.9311 141.68 28.9311H140.426V22.9343H141.68C142.635 22.9343 143.113 23.5085 143.113 24.6559V27.2084V27.2095Z" fill="white"/>
<path id="Vector_52" d="M152.303 21.6985C152.01 21.4286 151.669 21.2187 151.278 21.0698C150.886 20.921 150.471 20.8466 150.033 20.8466C149.595 20.8466 149.16 20.921 148.769 21.0698C148.377 21.2187 148.039 21.4275 147.754 21.6985C147.468 21.9684 147.243 22.2994 147.077 22.6915C146.911 23.0836 146.828 23.529 146.828 24.0288V34.0975C146.828 34.5973 146.911 35.0427 147.077 35.4348C147.243 35.8269 147.469 36.1612 147.754 36.4378C148.04 36.7144 148.377 36.9243 148.769 37.0654C149.161 37.2075 149.582 37.2775 150.033 37.2775C150.484 37.2775 150.886 37.2064 151.278 37.0654C151.669 36.9232 152.011 36.7144 152.303 36.4378C152.594 36.1612 152.823 35.8269 152.989 35.4348C153.155 35.0438 153.238 34.5973 153.238 34.0975V24.0288C153.238 23.529 153.155 23.0836 152.989 22.6915C152.823 22.2994 152.594 21.9695 152.303 21.6985ZM151.426 34.0764C151.426 34.5363 151.296 34.8839 151.038 35.1194C150.779 35.356 150.444 35.4737 150.032 35.4737C149.621 35.4737 149.285 35.356 149.027 35.1194C148.768 34.8828 148.639 34.5351 148.639 34.0764V24.0488C148.639 23.59 148.768 23.2424 149.027 23.0058C149.285 22.7692 149.621 22.6515 150.032 22.6515C150.444 22.6515 150.779 22.7703 151.038 23.0058C151.296 23.2424 151.426 23.59 151.426 24.0488V34.0764Z" fill="white"/>
<path id="Vector_53" d="M160.61 28.7278C160.968 28.5657 161.24 28.3091 161.427 27.9581C161.612 27.6071 161.705 27.114 161.705 26.4797V24.2716C161.705 23.2864 161.43 22.5167 160.879 21.9624C160.327 21.4093 159.574 21.1316 158.619 21.1316H155.453V36.9939H157.245V29.5998H158.598C159.156 29.5998 159.53 29.7042 159.724 29.9141C159.916 30.124 160.012 30.4783 160.012 30.9782V36.995H161.824V31.0393C161.824 30.3906 161.718 29.8841 161.505 29.5198C161.292 29.1555 160.994 28.8922 160.609 28.7301L160.61 28.7278ZM159.914 26.5608C159.914 27.074 159.811 27.4416 159.605 27.6649C159.398 27.8881 159.024 27.9992 158.479 27.9992H157.245V22.8943H158.479C159.434 22.8943 159.913 23.4275 159.913 24.4949V26.5608H159.914Z" fill="white"/>
<path id="Vector_54" d="M163.141 22.9343H164.893V36.9927H166.725V22.9343H168.477V21.1316H163.141V22.9343Z" fill="white"/>
<path id="Vector_55" d="M175.125 30.5108C174.939 30.2143 174.72 29.8866 174.468 29.5279C174.216 29.1702 173.954 28.8059 173.682 28.4338C173.41 28.0628 173.145 27.7074 172.885 27.3697C172.626 27.0321 172.41 26.7355 172.238 26.4789C171.972 26.1013 171.769 25.7392 171.631 25.3948C171.491 25.0505 171.421 24.6829 171.421 24.2908C171.421 23.8187 171.537 23.4166 171.769 23.0856C172.002 22.7546 172.363 22.5892 172.854 22.5892C173.279 22.5892 173.611 22.7247 173.85 22.9946C174.089 23.2645 174.208 23.6299 174.208 24.0886V24.514H175.9V23.9465C175.9 23.0146 175.635 22.2648 175.103 21.6984C174.573 21.1308 173.836 20.8475 172.893 20.8475C171.949 20.8475 171.17 21.1552 170.594 21.7694C170.016 22.3837 169.727 23.2178 169.727 24.2708C169.727 24.7839 169.81 25.3215 169.976 25.8813C170.142 26.4423 170.451 27.0865 170.901 27.8162C171.087 28.1139 171.297 28.4205 171.528 28.7381C171.761 29.0558 171.996 29.369 172.235 29.68C172.474 29.991 172.704 30.2876 172.922 30.5708C173.141 30.8541 173.324 31.1106 173.469 31.3406C173.76 31.8004 173.963 32.218 174.076 32.5968C174.188 32.9755 174.245 33.3465 174.245 33.7108C174.245 34.3051 174.122 34.7638 173.876 35.0881C173.631 35.4125 173.256 35.5746 172.752 35.5746C172.287 35.5746 171.925 35.4325 171.667 35.1492C171.408 34.866 171.278 34.535 171.278 34.1562V33.7708L169.586 33.3254V34.1762C169.586 34.6083 169.662 35.0137 169.815 35.3914C169.968 35.7701 170.184 36.0978 170.463 36.3744C170.741 36.6509 171.083 36.8709 171.488 37.033C171.893 37.1952 172.354 37.2763 172.872 37.2763C173.947 37.2763 174.736 36.9353 175.241 36.2533C175.745 35.5713 175.997 34.6427 175.997 33.4676C175.997 32.8867 175.927 32.3735 175.788 31.9281C175.648 31.4827 175.426 31.0096 175.121 30.5097L175.125 30.5108Z" fill="white"/>
</g>
</g>
<defs>
<clipPath id="clip0_1710_37568">
<rect width="176" height="48" fill="white"/>
</clipPath>
</defs>
</svg>
