<svg width="24" height="24" viewBox="0 0 24 24" fill="none" xmlns="http://www.w3.org/2000/svg">
<g id="bell-notification">
<path id="bell-notification_2" d="M14.167 20.2521C13.711 21.0331 12.903 21.5001 12.005 21.5001C11.107 21.5001 10.298 21.0331 9.84295 20.2521C9.75295 20.0971 9.75295 19.9061 9.84195 19.7511C9.93095 19.5961 10.096 19.5001 10.276 19.5001H13.7359C13.9149 19.5001 14.0799 19.5961 14.1699 19.7511C14.2599 19.9061 14.257 20.0981 14.167 20.2521ZM20.3999 17.6901C20.3799 17.6601 18.5 15.2801 18.5 12.5001V9.00006C18.5 8.86406 18.495 8.73106 18.487 8.59806C18.478 8.45806 18.3839 8.38406 18.3439 8.35606C18.3079 8.33106 18.2129 8.28405 18.0899 8.32505C17.7559 8.43705 17.3979 8.49705 17.0249 8.49905C15.3239 8.51105 13.793 7.23006 13.541 5.54806C13.414 4.69606 13.5869 3.89006 13.9909 3.22206C14.0949 3.05006 14.0299 2.82106 13.8379 2.76506C12.8019 2.46006 11.6489 2.40105 10.4739 2.68005C7.51195 3.38405 5.50995 6.16906 5.50995 9.21406V12.5001C5.50995 15.2801 3.62995 17.6601 3.60995 17.6901C3.48995 17.8401 3.46995 18.0401 3.54995 18.2201C3.63995 18.3901 3.80995 18.5001 3.99995 18.5001H20C20.2 18.5001 20.37 18.3901 20.46 18.2201C20.54 18.0401 20.5199 17.8401 20.3999 17.6901ZM17 3.00006C15.895 3.00006 15 3.89506 15 5.00006C15 6.10506 15.895 7.00006 17 7.00006C18.105 7.00006 19 6.10506 19 5.00006C19 3.89506 18.105 3.00006 17 3.00006Z" fill="white"/>
</g>
</svg>
