<svg width="146" height="40" viewBox="0 0 146 40" fill="none" xmlns="http://www.w3.org/2000/svg">
<g clip-path="url(#clip0_2063_80358)">
<path d="M7.82715 8L15.6541 16L23.481 8H7.82715Z" fill="#78A3BF"/>
<path d="M0 16L7.82691 24L15.6538 16H0Z" fill="#3F82A4"/>
<path d="M31.3076 16L39.1345 24L46.9614 16H31.3076Z" fill="#662483"/>
<path d="M39.1348 24L46.9617 32L54.7886 24H39.1348Z" fill="#4E699C"/>
<path d="M23.4805 8L31.3074 16L39.1343 8H23.4805Z" fill="#6C7EAC"/>
<path d="M15.6533 0L23.4802 8L31.3071 0H15.6533Z" fill="#643A86"/>
<path d="M15.6533 32L23.4802 40L31.3071 32H15.6533Z" fill="#98C6BD"/>
<path d="M31.3076 32L39.1345 40L46.9614 32H31.3076Z" fill="#662483"/>
<path d="M46.9619 32L54.7888 40L62.6157 32H46.9619Z" fill="#662483"/>
<path d="M15.6533 16L23.4802 24L31.3071 16H15.6533Z" fill="#4E699C"/>
<path d="M46.9614 32L39.1345 24L31.3076 32H46.9614Z" fill="#662483"/>
<path d="M54.7881 8L62.615 16L70.4419 8H54.7881Z" fill="#662483"/>
<path d="M62.6157 16L54.7888 8L46.9619 16H62.6157Z" fill="#646CA3"/>
<path d="M93.9234 16L86.0964 8L78.2695 16H93.9234Z" fill="#662483"/>
<path d="M54.7886 8L46.9617 0L39.1348 8H54.7886Z" fill="#74BDB8"/>
<path d="M54.7886 24L46.9617 16L39.1348 24H54.7886Z" fill="#662483"/>
<path d="M39.1343 24L31.3074 16L23.4805 24H39.1343Z" fill="#8A6BA7"/>
<path d="M46.9619 16L54.7888 24L62.6157 16H46.9619Z" fill="#662483"/>
<path d="M70.4419 24L62.615 16L54.7881 24H70.4419Z" fill="#662483"/>
<path d="M62.6152 16L70.4421 24L78.2691 16H62.6152Z" fill="#5F5991"/>
<path d="M86.0962 24L78.2693 16L70.4424 24H86.0962Z" fill="#662483"/>
<path d="M78.2695 16L86.0955 24L93.9225 16H78.2695Z" fill="#662483"/>
<path d="M70.4419 8L62.615 0L54.7881 8H70.4419Z" fill="#662483"/>
<path d="M62.6152 0L70.4421 8L78.2691 0H62.6152Z" fill="#662483"/>
<path d="M86.0962 8L78.2693 0L70.4424 8H86.0962Z" fill="#662483"/>
<path d="M78.2695 0L86.0955 8L93.9225 0H78.2695Z" fill="#662483"/>
<path d="M15.6538 32L7.82691 24L0 32H15.6538Z" fill="#74BDB8"/>
<path d="M70.441 40L62.615 32L54.7881 40H70.441Z" fill="#662483"/>
<path d="M54.7886 40L46.9617 32L39.1348 40H54.7886Z" fill="#662483"/>
<path d="M86.0957 8L93.9226 16L101.75 8H86.0957Z" fill="#662483"/>
<path d="M101.75 8L93.9226 0L86.0957 8H101.75Z" fill="#7892B6"/>
<path d="M31.3071 32L23.4802 24L15.6533 32H31.3071Z" fill="#3FAEA8"/>
<path d="M31.3071 16L23.4802 8L15.6533 16H31.3071Z" fill="#98C6BD"/>
<path d="M85.501 36.6511H87.6101V37.2194H86.1747V38.1025H87.4851V38.6477H86.1747V39.9435H85.501V36.652V36.6511Z" fill="white"/>
<path d="M91.7354 36.6511H93.8689V37.2194H92.4091V38.009H93.7856V38.5495H92.4091V39.3752H93.8689V39.9435H91.7354V36.652V36.6511Z" fill="white"/>
<path d="M98.085 36.6511H99.3147C99.6371 36.6511 99.9133 36.7141 100.142 36.8409C100.37 36.9677 100.545 37.1519 100.667 37.3944C100.789 37.6369 100.85 37.9322 100.85 38.2802V38.2848C100.85 38.6328 100.789 38.9309 100.668 39.1789C100.546 39.427 100.372 39.6158 100.142 39.7463C99.9133 39.8769 99.6371 39.9426 99.3147 39.9426H98.085V36.6511ZM99.2341 39.3724C99.4352 39.3724 99.6045 39.3317 99.7422 39.2493C99.8798 39.1669 99.984 39.0457 100.055 38.8846C100.127 38.7236 100.162 38.5245 100.162 38.2867V38.282C100.162 38.0543 100.126 37.8609 100.053 37.7026C99.9794 37.5443 99.8744 37.4249 99.7358 37.3435C99.5973 37.262 99.4297 37.2213 99.2332 37.2213H98.7578V39.3724H99.2332H99.2341Z" fill="white"/>
<path d="M105.015 36.6511H107.148V37.2194H105.688V38.009H107.065V38.5495H105.688V39.3752H107.148V39.9435H105.015V36.652V36.6511Z" fill="white"/>
<path d="M111.363 36.6511H112.694C112.934 36.6511 113.141 36.6928 113.313 36.7779C113.485 36.8622 113.616 36.9825 113.708 37.1398C113.799 37.2963 113.845 37.4851 113.845 37.7054V37.71C113.845 37.9275 113.793 38.1201 113.688 38.2885C113.583 38.457 113.442 38.5764 113.263 38.6477L113.941 39.9435H113.176L112.578 38.7532H112.038V39.9435H111.364V36.652L111.363 36.6511ZM112.619 38.2274C112.786 38.2274 112.916 38.1821 113.012 38.0904C113.107 37.9997 113.155 37.8729 113.155 37.7119V37.7072C113.155 37.549 113.106 37.424 113.007 37.3305C112.908 37.238 112.776 37.1917 112.611 37.1917H112.038V38.2274H112.62H112.619Z" fill="white"/>
<path d="M118.931 36.6511H119.723L120.843 39.9426H120.133L119.335 37.2898H119.321L118.52 39.9426H117.812L118.93 36.6511H118.931ZM118.487 38.6282H120.156V39.1438H118.487V38.6282Z" fill="white"/>
<path d="M125.235 37.2194H124.303V36.6511H126.842V37.2194H125.909V39.9426H125.235V37.2194Z" fill="white"/>
<path d="M130.943 36.6511H131.617V39.9426H130.943V36.6511Z" fill="white"/>
<path d="M136.509 39.7936C136.277 39.6557 136.096 39.4603 135.971 39.2049C135.844 38.9503 135.781 38.6477 135.781 38.2978V38.2932C135.781 37.9433 135.845 37.6415 135.972 37.3879C136.1 37.1343 136.279 36.9381 136.512 36.8002C136.745 36.6622 137.02 36.5938 137.337 36.5938C137.654 36.5938 137.93 36.6632 138.163 36.8011C138.396 36.9399 138.574 37.1352 138.701 37.3888C138.828 37.6415 138.891 37.9433 138.891 38.2932V38.2978C138.891 38.6477 138.828 38.9494 138.701 39.203C138.574 39.4566 138.396 39.6529 138.165 39.7917C137.933 39.9306 137.658 39.999 137.338 39.999C137.018 39.999 136.744 39.9306 136.511 39.7926L136.509 39.7936ZM137.797 39.278C137.926 39.1864 138.025 39.0568 138.095 38.8892C138.165 38.7217 138.2 38.5255 138.2 38.2987V38.2941C138.2 38.0664 138.165 37.8683 138.094 37.7008C138.023 37.5332 137.924 37.4046 137.794 37.3139C137.665 37.2232 137.513 37.1778 137.337 37.1778C137.161 37.1778 137.008 37.2232 136.879 37.3139C136.749 37.4046 136.648 37.5332 136.577 37.6989C136.507 37.8655 136.471 38.0636 136.471 38.2932V38.2978C136.471 38.5255 136.507 38.7236 136.577 38.8911C136.648 39.0586 136.748 39.1873 136.878 39.2789C137.007 39.3706 137.16 39.4159 137.338 39.4159C137.515 39.4159 137.67 39.3696 137.799 39.278H137.797Z" fill="white"/>
<path d="M143.051 36.6511H143.64L145.39 39.2262L144.826 38.7902H145.109V36.6511H145.781V39.9426H145.196L143.442 37.3537L144.007 37.7896H143.724V39.9426H143.052V36.6511H143.051Z" fill="white"/>
<path d="M118.427 4.19479C118.564 4.66222 118.821 5.19907 119.195 5.80719C119.349 6.05525 119.523 6.31072 119.715 6.57544C119.907 6.84017 120.103 7.10119 120.301 7.36036C120.5 7.61953 120.69 7.86666 120.871 8.10269C121.053 8.33872 121.204 8.55254 121.325 8.74414C121.566 9.12734 121.735 9.47536 121.828 9.79099C121.921 10.1066 121.969 10.4158 121.969 10.7194C121.969 11.2146 121.866 11.5968 121.662 11.8671C121.459 12.1374 121.148 12.2725 120.73 12.2725C120.344 12.2725 120.044 12.1541 119.83 11.918C119.615 11.682 119.507 11.4062 119.507 11.0905V10.7694L118.104 10.3982V11.1072C118.104 11.4673 118.167 11.8051 118.294 12.1198C118.42 12.4354 118.6 12.7085 118.831 12.939C119.062 13.1694 119.345 13.3527 119.681 13.4879C120.017 13.623 120.4 13.6906 120.829 13.6906C121.721 13.6906 122.376 13.4064 122.794 12.8381C123.213 12.2698 123.422 11.496 123.422 10.5167C123.422 10.0326 123.364 9.60495 123.248 9.23378C123.132 8.86261 122.948 8.4683 122.695 8.05178C122.541 7.80465 122.359 7.53159 122.15 7.23262C121.94 6.93458 121.723 6.63098 121.498 6.3209C121.272 6.01175 121.052 5.71556 120.837 5.43417C120.622 5.15279 120.443 4.90565 120.3 4.69184C120.079 4.37713 119.911 4.07539 119.796 3.78845C119.68 3.50151 119.622 3.19514 119.622 2.8684C119.622 2.47502 119.718 2.13995 119.911 1.86412C120.104 1.58829 120.404 1.45037 120.811 1.45037C121.163 1.45037 121.439 1.5633 121.637 1.78822C121.835 2.01314 121.934 2.31766 121.934 2.69994V3.05444H123.338V2.58146C123.338 1.80488 123.118 1.18009 122.677 0.708037C122.237 0.235053 121.625 -0.000976562 120.843 -0.000976562C120.776 -0.000976562 120.712 0.00365146 120.648 0.00735388L118.235 2.47409C118.224 2.59627 118.218 2.72123 118.218 2.85174C118.218 3.27937 118.286 3.72736 118.424 4.19386L118.427 4.19479Z" fill="white"/>
<path d="M127.677 0H126.253L123.991 13.6906H125.461L125.785 11.5469H128.197L128.534 13.6906H130.004L127.677 0ZM125.983 10.2474L126.974 3.6293L127.998 10.2474H125.983Z" fill="white"/>
<path d="M136.305 11.0406V0H134.819V11.0239C134.819 11.4072 134.711 11.6969 134.496 11.8931C134.282 12.0902 133.998 12.1884 133.646 12.1884C133.315 12.1884 133.043 12.0902 132.828 11.8931C132.614 11.6959 132.506 11.4062 132.506 11.0239V0H130.986V11.0406C130.986 11.4571 131.055 11.8283 131.193 12.155C131.33 12.4818 131.517 12.7604 131.754 12.9909C131.991 13.2213 132.269 13.3963 132.588 13.5138C132.907 13.6323 133.254 13.6906 133.629 13.6906C134.004 13.6906 134.352 13.6314 134.677 13.5138C135.003 13.3953 135.286 13.2213 135.528 12.9909C135.77 12.7604 135.96 12.4818 136.097 12.155C136.235 11.8292 136.304 11.4571 136.304 11.0406H136.305Z" fill="white"/>
<path d="M143.044 10.6519V3.03876C143.044 2.00393 142.813 1.23846 142.351 0.74326C141.888 0.248062 141.26 0 140.468 0H137.792V13.6906H140.468C141.26 13.6906 141.889 13.4435 142.351 12.9483C142.813 12.4531 143.044 11.6876 143.044 10.6528V10.6519ZM141.541 10.7527C141.541 11.7098 141.144 12.1874 140.352 12.1874H139.312V1.50226H140.352C141.144 1.50226 141.541 1.98079 141.541 2.93694V10.7527Z" fill="white"/>
<path d="M146 0H144.48V13.6906H146V0Z" fill="white"/>
<path d="M106.723 30.8272V29.325H103.966V24.7673H105.915V23.2651H103.966V19.1119H106.723V17.6096H104.113L102.446 19.3127V30.8272H106.723Z" fill="white"/>
<path d="M112.604 25.4253C112.449 25.1782 112.268 24.9051 112.059 24.6062C111.85 24.3081 111.632 24.0045 111.407 23.6944C111.181 23.3853 110.961 23.0891 110.746 22.8077C110.531 22.5263 110.352 22.2792 110.209 22.0654C109.989 21.7507 109.821 21.4489 109.705 21.162C109.589 20.875 109.532 20.5687 109.532 20.2419C109.532 19.8486 109.628 19.5135 109.821 19.2377C110.014 18.9618 110.314 18.8239 110.721 18.8239C111.073 18.8239 111.349 18.9368 111.547 19.1618C111.745 19.3867 111.844 19.6912 111.844 20.0735V20.428H113.248V19.955C113.248 19.1784 113.028 18.5536 112.587 18.0816C112.146 17.6086 111.535 17.3726 110.754 17.3726C109.972 17.3726 109.325 17.629 108.846 18.1408C108.367 18.6527 108.128 19.3478 108.128 20.2253C108.128 20.6529 108.196 21.1009 108.334 21.5674C108.472 22.0348 108.728 22.5717 109.102 23.1798C109.256 23.4279 109.43 23.6833 109.623 23.9481C109.816 24.2128 110.01 24.4738 110.209 24.733C110.407 24.9921 110.597 25.2393 110.779 25.4753C110.96 25.7113 111.112 25.9251 111.233 26.1167C111.475 26.4999 111.643 26.848 111.736 27.1636C111.83 27.4792 111.877 27.7884 111.877 28.092C111.877 28.5872 111.775 28.9695 111.572 29.2397C111.368 29.51 111.056 29.6451 110.638 29.6451C110.252 29.6451 109.952 29.5267 109.738 29.2906C109.523 29.0546 109.415 28.7788 109.415 28.4632V28.142L108.012 27.7708V28.4798C108.012 28.8399 108.075 29.1777 108.202 29.4924C108.329 29.8081 108.507 30.0811 108.739 30.3116C108.97 30.5421 109.253 30.7253 109.589 30.8605C109.925 30.9956 110.307 31.0632 110.738 31.0632C111.63 31.0632 112.284 30.779 112.703 30.2107C113.121 29.6424 113.33 28.8686 113.33 27.8893C113.33 27.4052 113.272 26.9776 113.156 26.6064C113.04 26.2352 112.857 25.8409 112.603 25.4244L112.604 25.4253Z" fill="white"/>
<path d="M117.642 17.6096H114.967V30.8282H116.486V25.6115H117.643C118.435 25.6115 119.064 25.3643 119.525 24.8691C119.988 24.3739 120.219 23.6085 120.219 22.5736V20.6493C120.219 19.6145 119.988 18.849 119.525 18.3538C119.063 17.8586 118.435 17.6105 117.643 17.6105L117.642 17.6096ZM118.716 22.6745C118.716 23.6316 118.319 24.1092 117.527 24.1092H116.486V19.1119H117.527C118.319 19.1119 118.716 19.5904 118.716 20.5466V22.6736V22.6745Z" fill="white"/>
<path d="M126.345 18.0815C126.102 17.8566 125.819 17.6817 125.495 17.5576C125.17 17.4336 124.826 17.3716 124.462 17.3716C124.099 17.3716 123.738 17.4336 123.414 17.5576C123.089 17.6817 122.808 17.8557 122.572 18.0815C122.334 18.3064 122.148 18.5823 122.01 18.909C121.873 19.2357 121.804 19.6069 121.804 20.0234V28.414C121.804 28.8306 121.873 29.2017 122.01 29.5285C122.148 29.8552 122.335 30.1338 122.572 30.3643C122.809 30.5948 123.089 30.7697 123.414 30.8873C123.739 31.0057 124.088 31.064 124.462 31.064C124.836 31.064 125.17 31.0048 125.495 30.8873C125.819 30.7688 126.103 30.5948 126.345 30.3643C126.587 30.1338 126.777 29.8552 126.915 29.5285C127.052 29.2027 127.121 28.8306 127.121 28.414V20.0234C127.121 19.6069 127.052 19.2357 126.915 18.909C126.777 18.5823 126.587 18.3074 126.345 18.0815ZM125.618 28.3965C125.618 28.7797 125.51 29.0694 125.296 29.2656C125.081 29.4628 124.803 29.5609 124.462 29.5609C124.12 29.5609 123.842 29.4628 123.628 29.2656C123.413 29.0684 123.306 28.7787 123.306 28.3965V20.0401C123.306 19.6578 123.413 19.3681 123.628 19.171C123.842 18.9738 124.12 18.8757 124.462 18.8757C124.803 18.8757 125.081 18.9747 125.296 19.171C125.51 19.3681 125.618 19.6578 125.618 20.0401V28.3965Z" fill="white"/>
<path d="M133.233 23.9398C133.53 23.8047 133.756 23.5909 133.91 23.2984C134.064 23.0059 134.141 22.5949 134.141 22.0664V20.2263C134.141 19.4053 133.913 18.7638 133.456 18.302C132.998 17.841 132.374 17.6096 131.581 17.6096H128.955V30.8282H130.441V24.6664H131.564C132.027 24.6664 132.337 24.7534 132.498 24.9284C132.657 25.1033 132.737 25.3986 132.737 25.8151V30.8291H134.24V25.866C134.24 25.3255 134.152 24.9034 133.976 24.5998C133.799 24.2962 133.552 24.0768 133.232 23.9417L133.233 23.9398ZM132.655 22.134C132.655 22.5616 132.57 22.868 132.399 23.054C132.228 23.2401 131.917 23.3326 131.465 23.3326H130.441V19.0786H131.465C132.258 19.0786 132.654 19.5228 132.654 20.4123V22.134H132.655Z" fill="white"/>
<path d="M135.33 19.1119H136.784V30.8272H138.303V19.1119H139.757V17.6096H135.33V19.1119Z" fill="white"/>
<path d="M145.274 25.4253C145.12 25.1782 144.938 24.9051 144.728 24.6062C144.519 24.3081 144.302 24.0045 144.076 23.6944C143.851 23.3853 143.631 23.0891 143.415 22.8077C143.201 22.5263 143.021 22.2792 142.878 22.0654C142.658 21.7507 142.49 21.4489 142.375 21.162C142.259 20.875 142.201 20.5687 142.201 20.2419C142.201 19.8486 142.297 19.5135 142.49 19.2377C142.683 18.9618 142.983 18.8239 143.39 18.8239C143.742 18.8239 144.018 18.9368 144.216 19.1618C144.414 19.3867 144.513 19.6912 144.513 20.0735V20.428H145.917V19.955C145.917 19.1784 145.697 18.5536 145.256 18.0816C144.815 17.6086 144.204 17.3726 143.422 17.3726C142.639 17.3726 141.993 17.629 141.515 18.1408C141.036 18.6527 140.796 19.3478 140.796 20.2253C140.796 20.6529 140.864 21.1009 141.002 21.5674C141.14 22.0348 141.396 22.5717 141.77 23.1798C141.924 23.4279 142.098 23.6833 142.29 23.9481C142.483 24.2128 142.678 24.4738 142.877 24.733C143.075 24.9921 143.265 25.2393 143.446 25.4753C143.628 25.7113 143.779 25.9251 143.9 26.1167C144.142 26.4999 144.31 26.848 144.403 27.1636C144.497 27.4792 144.544 27.7884 144.544 28.092C144.544 28.5872 144.441 28.9695 144.238 29.2397C144.034 29.51 143.723 29.6451 143.305 29.6451C142.919 29.6451 142.619 29.5267 142.405 29.2906C142.19 29.0546 142.082 28.7788 142.082 28.4632V28.142L140.679 27.7708V28.4798C140.679 28.8399 140.742 29.1777 140.869 29.4924C140.996 29.8081 141.175 30.0811 141.406 30.3116C141.637 30.5421 141.92 30.7253 142.256 30.8605C142.592 30.9956 142.975 31.0632 143.404 31.0632C144.296 31.0632 144.951 30.779 145.37 30.2107C145.788 29.6424 145.997 28.8686 145.997 27.8893C145.997 27.4052 145.939 26.9776 145.823 26.6064C145.707 26.2352 145.524 25.8409 145.27 25.4244L145.274 25.4253Z" fill="white"/>
</g>
<defs>
<clipPath id="clip0_2063_80358">
<rect width="146" height="40" fill="white"/>
</clipPath>
</defs>
</svg>
