<svg width="20" height="20" viewBox="0 0 20 20" fill="none" xmlns="http://www.w3.org/2000/svg">
<g id="menu">
<path id="menu_2" d="M1.875 5C1.875 4.655 2.155 4.375 2.5 4.375H17.5C17.845 4.375 18.125 4.655 18.125 5C18.125 5.345 17.845 5.625 17.5 5.625H2.5C2.155 5.625 1.875 5.345 1.875 5ZM17.5 9.375H2.5C2.155 9.375 1.875 9.655 1.875 10C1.875 10.345 2.155 10.625 2.5 10.625H17.5C17.845 10.625 18.125 10.345 18.125 10C18.125 9.655 17.845 9.375 17.5 9.375ZM17.5 14.375H2.5C2.155 14.375 1.875 14.655 1.875 15C1.875 15.345 2.155 15.625 2.5 15.625H17.5C17.845 15.625 18.125 15.345 18.125 15C18.125 14.655 17.845 14.375 17.5 14.375Z" fill="white"/>
</g>
</svg>
